# xmcd
#
# Track frame offsets:
#	150
#	17057
#	33375
#	54917
#	74685
#	91425
#	113845
#	134845
#	156137
#	185652
#
# Disc length: 2680 seconds
#
# Revision: 0
# Processed by: cddbd v1.5.2PL0 Copyright (c) Steve Scherf et al.
# Submitted via: audiograbber 1.83.01
#
DISCID=8d0a760a
DTITLE=Madonna - Music
DYEAR=1900
DGENRE=Retro
TTITLE0=Music
TTITLE1=Impressive Instant
TTITLE2=Runaway Lover
TTITLE3=I Deserve It
TTITLE4=Amazing
TTITLE5=Nobody's Perfect
TTITLE6=Don't Tell Me
TTITLE7=What It Feels Like For A Girl
TTITLE8=Paradise (Not For Me)
TTITLE9=Gone
EXTD=
EXTT0=
EXTT1=
EXTT2=
EXTT3=
EXTT4=
EXTT5=
EXTT6=
EXTT7=
EXTT8=
EXTT9=
PLAYORDER=
